# xmcd
#
# Track frame offsets:
#	150
#	19889
#	36178
#	51364
#	65369
#	78874
#	93566
#	108693
#	121407
#	134840
#	149740
#	166015
#	180510
#	192536
#	206055
#	218947
#	231947
#	250718
#	264813
#	276755
#
# Disc length: 3917 seconds
#
# Revision: 0
# Processed by: cddbd v1.5.2PL0 Copyright (c) Steve Scherf et al.
# Submitted via: dBpowerAMP V4.0
#
DISCID=300f4b14
DTITLE=Jacó e Jacózinho - As 20 mais de
DYEAR=1900
DGENRE=
TTITLE0=Capa do viajante
TTITLE1=Ladrão de terra
TTITLE2=Filho de pobre
TTITLE3=Florzinha do campo
TTITLE4=Ninho de cobra
TTITLE5=Filho adotivo
TTITLE6=É fogo
TTITLE7=Mar vermelho
TTITLE8=Empreitada perigosa
TTITLE9=Fundanga
TTITLE10=Sete irmãos
TTITLE11=Tropa saudosa
TTITLE12=Preto e branco
TTITLE13=Terra bruta
TTITLE14=Cavalo Enxuto
TTITLE15=Degrau da fama
TTITLE16=Velho valente
TTITLE17=Homem sem rumo
TTITLE18=Viva o lari larai
TTITLE19=Os filhos da Bahia
EXTD=As 20 mais, Jacó e Jacózinho
EXTT0=
EXTT1=
EXTT2=
EXTT3=
EXTT4=
EXTT5=
EXTT6=
EXTT7=
EXTT8=
EXTT9=
EXTT10=
EXTT11=
EXTT12=
EXTT13=
EXTT14=
EXTT15=
EXTT16=
EXTT17=
EXTT18=
EXTT19=
PLAYORDER=
